<?xml version="1.0" encoding="utf-8"?><svg version="1.1" xmlns="http://www.w3.org/2000/svg" xmlns:xlink="http://www.w3.org/1999/xlink" x="0px" y="0px"
viewBox="0 0 690 668" height="690" width="668" style="enable-background:new 0 0 690 668;" xml:space="preserve"><line x1="100" y1="70" x2="400" y2="200" style="fill:none;stroke:#00ff00;stroke-width:5px; "/><line x1="400" y1="20" x2="400" y2="220" style="fill:none;stroke:#000000;stroke-width:10px; "/><line x1="230" y1="301" x2="380" y2="292" style="fill:none;stroke:#000000;stroke-width:1px; "/><circle cx="236" cy="292" r="9" fill="#000000"/><circle cx="236" cy="293" r="9" fill="#000000"/><circle cx="237" cy="295" r="9" fill="#000000"/><circle cx="237" cy="296" r="9" fill="#000000"/><circle cx="239" cy="299" r="9" fill="#000000"/><circle cx="241" cy="304" r="9" fill="#000000"/><circle cx="243" cy="310" r="9" fill="#000000"/><circle cx="246" cy="317" r="9" fill="#000000"/><circle cx="249" cy="324" r="9" fill="#000000"/><circle cx="252" cy="332" r="9" fill="#000000"/><circle cx="254" cy="335" r="9" fill="#000000"/><circle cx="258" cy="342" r="9" fill="#000000"/><circle cx="263" cy="348" r="9" fill="#000000"/><circle cx="268" cy="354" r="9" fill="#000000"/><circle cx="270" cy="356" r="9" fill="#000000"/><circle cx="275" cy="360" r="9" fill="#000000"/><circle cx="278" cy="362" r="9" fill="#000000"/><circle cx="286" cy="365" r="9" fill="#000000"/><circle cx="294" cy="368" r="9" fill="#000000"/><circle cx="299" cy="370" r="9" fill="#000000"/><circle cx="309" cy="372" r="9" fill="#000000"/><circle cx="314" cy="373" r="9" fill="#000000"/><circle cx="325" cy="375" r="9" fill="#000000"/><circle cx="332" cy="375" r="9" fill="#000000"/><circle cx="344" cy="375" r="9" fill="#000000"/><circle cx="351" cy="375" r="9" fill="#000000"/><circle cx="363" cy="375" r="9" fill="#000000"/><circle cx="369" cy="375" r="9" fill="#000000"/><circle cx="380" cy="375" r="9" fill="#000000"/><circle cx="385" cy="374" r="9" fill="#000000"/><circle cx="391" cy="373" r="9" fill="#000000"/><circle cx="401" cy="371" r="9" fill="#000000"/><circle cx="406" cy="370" r="9" fill="#000000"/><circle cx="416" cy="368" r="9" fill="#000000"/><circle cx="420" cy="366" r="9" fill="#000000"/><circle cx="424" cy="365" r="9" fill="#000000"/><circle cx="430" cy="362" r="9" fill="#000000"/><circle cx="432" cy="361" r="9" fill="#000000"/><circle cx="436" cy="359" r="9" fill="#000000"/><circle cx="438" cy="356" r="9" fill="#000000"/><circle cx="440" cy="354" r="9" fill="#000000"/><circle cx="440" cy="353" r="9" fill="#000000"/><circle cx="441" cy="350" r="9" fill="#000000"/><circle cx="441" cy="349" r="9" fill="#000000"/><circle cx="441" cy="346" r="9" fill="#000000"/><circle cx="441" cy="345" r="9" fill="#000000"/><circle cx="441" cy="342" r="9" fill="#000000"/><circle cx="441" cy="341" r="9" fill="#000000"/><circle cx="440" cy="338" r="9" fill="#000000"/><circle cx="439" cy="336" r="9" fill="#000000"/><circle cx="437" cy="333" r="9" fill="#000000"/><circle cx="435" cy="331" r="9" fill="#000000"/><circle cx="431" cy="328" r="9" fill="#000000"/><circle cx="429" cy="326" r="9" fill="#000000"/><circle cx="424" cy="323" r="9" fill="#000000"/><circle cx="422" cy="321" r="9" fill="#000000"/><circle cx="419" cy="320" r="9" fill="#000000"/><circle cx="414" cy="318" r="9" fill="#000000"/><circle cx="412" cy="317" r="9" fill="#000000"/><circle cx="410" cy="317" r="9" fill="#000000"/><circle cx="404" cy="316" r="9" fill="#000000"/><circle cx="402" cy="315" r="9" fill="#000000"/><circle cx="400" cy="315" r="9" fill="#000000"/><circle cx="395" cy="315" r="9" fill="#000000"/><circle cx="393" cy="315" r="9" fill="#000000"/><circle cx="391" cy="315" r="9" fill="#000000"/><circle cx="388" cy="316" r="9" fill="#000000"/><circle cx="387" cy="317" r="9" fill="#000000"/><circle cx="385" cy="318" r="9" fill="#000000"/><circle cx="384" cy="319" r="9" fill="#000000"/><circle cx="382" cy="323" r="9" fill="#000000"/><circle cx="380" cy="326" r="9" fill="#000000"/><circle cx="379" cy="329" r="9" fill="#000000"/><circle cx="377" cy="333" r="9" fill="#000000"/><circle cx="375" cy="337" r="9" fill="#000000"/><circle cx="373" cy="342" r="9" fill="#000000"/><circle cx="372" cy="344" r="9" fill="#000000"/><circle cx="370" cy="349" r="9" fill="#000000"/><circle cx="367" cy="355" r="9" fill="#000000"/><circle cx="365" cy="361" r="9" fill="#000000"/><circle cx="363" cy="364" r="9" fill="#000000"/><circle cx="360" cy="370" r="9" fill="#000000"/><circle cx="356" cy="376" r="9" fill="#000000"/><circle cx="355" cy="379" r="9" fill="#000000"/><circle cx="351" cy="385" r="9" fill="#000000"/><circle cx="346" cy="392" r="9" fill="#000000"/><circle cx="343" cy="395" r="9" fill="#000000"/><circle cx="338" cy="401" r="9" fill="#000000"/><circle cx="334" cy="404" r="9" fill="#000000"/><circle cx="328" cy="411" r="9" fill="#000000"/><circle cx="324" cy="414" r="9" fill="#000000"/><circle cx="317" cy="421" r="9" fill="#000000"/><circle cx="313" cy="424" r="9" fill="#000000"/><circle cx="305" cy="430" r="9" fill="#000000"/><circle cx="301" cy="433" r="9" fill="#000000"/><circle cx="292" cy="439" r="9" fill="#000000"/><circle cx="287" cy="442" r="9" fill="#000000"/><circle cx="277" cy="447" r="9" fill="#000000"/><circle cx="272" cy="450" r="9" fill="#000000"/><circle cx="266" cy="453" r="9" fill="#000000"/><circle cx="255" cy="457" r="9" fill="#000000"/><circle cx="249" cy="459" r="9" fill="#000000"/><circle cx="237" cy="463" r="9" fill="#000000"/><circle cx="231" cy="464" r="9" fill="#000000"/><circle cx="224" cy="465" r="9" fill="#000000"/><circle cx="211" cy="467" r="9" fill="#000000"/><circle cx="205" cy="468" r="9" fill="#000000"/><circle cx="199" cy="469" r="9" fill="#000000"/><circle cx="193" cy="469" r="9" fill="#000000"/><circle cx="183" cy="469" r="9" fill="#000000"/><circle cx="178" cy="469" r="9" fill="#000000"/><circle cx="173" cy="469" r="9" fill="#000000"/><circle cx="169" cy="469" r="9" fill="#000000"/><circle cx="162" cy="468" r="9" fill="#000000"/><circle cx="158" cy="467" r="9" fill="#000000"/><circle cx="155" cy="465" r="9" fill="#000000"/><circle cx="152" cy="463" r="9" fill="#000000"/><circle cx="151" cy="461" r="9" fill="#000000"/><circle cx="148" cy="458" r="9" fill="#000000"/><circle cx="145" cy="455" r="9" fill="#000000"/><circle cx="143" cy="452" r="9" fill="#000000"/><circle cx="141" cy="449" r="9" fill="#000000"/><circle cx="140" cy="446" r="9" fill="#000000"/><circle cx="140" cy="446" r="9" fill="#000000"/><path d="M236,292 236,293 237,295 237,296 239,299 241,304 243,310 246,317 249,324 252,332 254,335 258,342 263,348 268,354 270,356 275,360 278,362 286,365 294,368 299,370 309,372 314,373 325,375 332,375 344,375 351,375 363,375 369,375 380,375 385,374 391,373 401,371 406,370 416,368 420,366 424,365 430,362 432,361 436,359 438,356 440,354 440,353 441,350 441,349 441,346 441,345 441,342 441,341 440,338 439,336 437,333 435,331 431,328 429,326 424,323 422,321 419,320 414,318 412,317 410,317 404,316 402,315 400,315 395,315 393,315 391,315 388,316 387,317 385,318 384,319 382,323 380,326 379,329 377,333 375,337 373,342 372,344 370,349 367,355 365,361 363,364 360,370 356,376 355,379 351,385 346,392 343,395 338,401 334,404 328,411 324,414 317,421 313,424 305,430 301,433 292,439 287,442 277,447 272,450 266,453 255,457 249,459 237,463 231,464 224,465 211,467 205,468 199,469 193,469 183,469 178,469 173,469 169,469 162,468 158,467 155,465 152,463 151,461 148,458 145,455 143,452 141,449 140,446 140,446 " style="fill:none;stroke:#000000;stroke-width:19px; "/><circle cx="165" cy="255" r="9" fill="#ffcc99"/><circle cx="166" cy="256" r="9" fill="#ffcc99"/><circle cx="167" cy="257" r="9" fill="#ffcc99"/><circle cx="172" cy="263" r="9" fill="#ffcc99"/><circle cx="178" cy="270" r="9" fill="#ffcc99"/><circle cx="186" cy="279" r="9" fill="#ffcc99"/><circle cx="192" cy="287" r="9" fill="#ffcc99"/><circle cx="204" cy="302" r="9" fill="#ffcc99"/><circle cx="216" cy="317" r="9" fill="#ffcc99"/><circle cx="224" cy="329" r="9" fill="#ffcc99"/><circle cx="238" cy="347" r="9" fill="#ffcc99"/><circle cx="247" cy="359" r="9" fill="#ffcc99"/><circle cx="256" cy="372" r="9" fill="#ffcc99"/><circle cx="270" cy="389" r="9" fill="#ffcc99"/><circle cx="280" cy="401" r="9" fill="#ffcc99"/><circle cx="289" cy="412" r="9" fill="#ffcc99"/><circle cx="297" cy="422" r="9" fill="#ffcc99"/><circle cx="305" cy="430" r="9" fill="#ffcc99"/><circle cx="313" cy="438" r="9" fill="#ffcc99"/><circle cx="319" cy="445" r="9" fill="#ffcc99"/><circle cx="324" cy="450" r="9" fill="#ffcc99"/><circle cx="328" cy="455" r="9" fill="#ffcc99"/><circle cx="331" cy="459" r="9" fill="#ffcc99"/><circle cx="334" cy="462" r="9" fill="#ffcc99"/><circle cx="334" cy="464" r="9" fill="#ffcc99"/><circle cx="335" cy="467" r="9" fill="#ffcc99"/><circle cx="336" cy="470" r="9" fill="#ffcc99"/><circle cx="336" cy="475" r="9" fill="#ffcc99"/><circle cx="336" cy="477" r="9" fill="#ffcc99"/><circle cx="334" cy="484" r="9" fill="#ffcc99"/><circle cx="332" cy="491" r="9" fill="#ffcc99"/><circle cx="330" cy="496" r="9" fill="#ffcc99"/><circle cx="325" cy="505" r="9" fill="#ffcc99"/><circle cx="319" cy="514" r="9" fill="#ffcc99"/><circle cx="311" cy="524" r="9" fill="#ffcc99"/><circle cx="305" cy="529" r="9" fill="#ffcc99"/><circle cx="298" cy="534" r="9" fill="#ffcc99"/><circle cx="291" cy="539" r="9" fill="#ffcc99"/><circle cx="278" cy="544" r="9" fill="#ffcc99"/><circle cx="270" cy="546" r="9" fill="#ffcc99"/><circle cx="261" cy="547" r="9" fill="#ffcc99"/><circle cx="253" cy="547" r="9" fill="#ffcc99"/><circle cx="245" cy="547" r="9" fill="#ffcc99"/><circle cx="237" cy="545" r="9" fill="#ffcc99"/><circle cx="231" cy="542" r="9" fill="#ffcc99"/><circle cx="226" cy="538" r="9" fill="#ffcc99"/><circle cx="223" cy="536" r="9" fill="#ffcc99"/><circle cx="219" cy="530" r="9" fill="#ffcc99"/><circle cx="215" cy="523" r="9" fill="#ffcc99"/><circle cx="213" cy="514" r="9" fill="#ffcc99"/><circle cx="211" cy="505" r="9" fill="#ffcc99"/><circle cx="211" cy="500" r="9" fill="#ffcc99"/><circle cx="212" cy="487" r="9" fill="#ffcc99"/><circle cx="214" cy="480" r="9" fill="#ffcc99"/><circle cx="217" cy="475" r="9" fill="#ffcc99"/><circle cx="222" cy="470" r="9" fill="#ffcc99"/><circle cx="227" cy="465" r="9" fill="#ffcc99"/><circle cx="233" cy="463" r="9" fill="#ffcc99"/><circle cx="240" cy="460" r="9" fill="#ffcc99"/><circle cx="248" cy="458" r="9" fill="#ffcc99"/><circle cx="260" cy="456" r="9" fill="#ffcc99"/><circle cx="270" cy="456" r="9" fill="#ffcc99"/><circle cx="285" cy="456" r="9" fill="#ffcc99"/><circle cx="298" cy="457" r="9" fill="#ffcc99"/><circle cx="312" cy="459" r="9" fill="#ffcc99"/><circle cx="321" cy="461" r="9" fill="#ffcc99"/><circle cx="335" cy="465" r="9" fill="#ffcc99"/><circle cx="351" cy="468" r="9" fill="#ffcc99"/><circle cx="361" cy="471" r="9" fill="#ffcc99"/><circle cx="375" cy="475" r="9" fill="#ffcc99"/><circle cx="386" cy="478" r="9" fill="#ffcc99"/><circle cx="400" cy="482" r="9" fill="#ffcc99"/><circle cx="409" cy="485" r="9" fill="#ffcc99"/><circle cx="418" cy="487" r="9" fill="#ffcc99"/><circle cx="427" cy="489" r="9" fill="#ffcc99"/><circle cx="436" cy="490" r="9" fill="#ffcc99"/><circle cx="444" cy="491" r="9" fill="#ffcc99"/><circle cx="456" cy="491" r="9" fill="#ffcc99"/><circle cx="464" cy="490" r="9" fill="#ffcc99"/><circle cx="468" cy="490" r="9" fill="#ffcc99"/><circle cx="477" cy="488" r="9" fill="#ffcc99"/><circle cx="487" cy="486" r="9" fill="#ffcc99"/><circle cx="499" cy="483" r="9" fill="#ffcc99"/><circle cx="499" cy="483" r="9" fill="#ffcc99"/><path d="M165,255 166,256 167,257 172,263 178,270 186,279 192,287 204,302 216,317 224,329 238,347 247,359 256,372 270,389 280,401 289,412 297,422 305,430 313,438 319,445 324,450 328,455 331,459 334,462 334,464 335,467 336,470 336,475 336,477 334,484 332,491 330,496 325,505 319,514 311,524 305,529 298,534 291,539 278,544 270,546 261,547 253,547 245,547 237,545 231,542 226,538 223,536 219,530 215,523 213,514 211,505 211,500 212,487 214,480 217,475 222,470 227,465 233,463 240,460 248,458 260,456 270,456 285,456 298,457 312,459 321,461 335,465 351,468 361,471 375,475 386,478 400,482 409,485 418,487 427,489 436,490 444,491 456,491 464,490 468,490 477,488 487,486 499,483 499,483 " style="fill:none;stroke:#ffcc99;stroke-width:19px; "/></svg>